# xmcd
# 
# Track frame offsets:
#     150
#     28399
#     71312
#     91556
#     116723
#     143258
#     187227
#     213752
#     234760
# 
# Disc length: 3892
# 
# Revision: 1
# Processed by: cddbd v1.5.2PL0 Copyright (c) Steve Scherf et al.
# Submitted via: fre:ac v1.0.31
# 
DISCID=6e0f3209
DTITLE=Jef Neve Trio - Soul In A Picture
DYEAR=2008
DGENRE=Jazz
TTITLE0=Remorse
TTITLE1=Lay down, deep down
TTITLE2=Intro to Sehnsucht
TTITLE3=Sehnsucht
TTITLE4=Lacrimosa
TTITLE5=A waterfall never comes alone
TTITLE6=How blue can I get?
TTITLE7=Für Lize
TTITLE8=Soul in a picture
EXTD=YEAR: 2008
EXTT0=
EXTT1=
EXTT2=
EXTT3=
EXTT4=
EXTT5=
EXTT6=
EXTT7=
EXTT8=
PLAYORDER=
